<svg width="10" height="18" viewBox="0 0 10 18" fill="none" xmlns="http://www.w3.org/2000/svg">
<path d="M9.36519 0.0037452L7.031 0C4.40861 0 2.7139 1.73871 2.7139 4.42982V6.47227H0.366969C0.164166 6.47227 -6.10352e-05 6.63668 -6.10352e-05 6.83949V9.79876C-6.10352e-05 10.0016 0.164354 10.1658 0.366969 10.1658H2.7139V17.633C2.7139 17.8358 2.87813 18 3.08093 18H6.14301C6.34581 18 6.51004 17.8356 6.51004 17.633V10.1658H9.25415C9.45695 10.1658 9.62118 10.0016 9.62118 9.79876L9.6223 6.83949C9.6223 6.74211 9.58354 6.64886 9.51481 6.57994C9.44609 6.51103 9.35246 6.47227 9.25508 6.47227H6.51004V4.74086C6.51004 3.90868 6.70835 3.48622 7.7924 3.48622L9.36482 3.48566C9.56743 3.48566 9.73166 3.32124 9.73166 3.11863V0.370775C9.73166 0.168347 9.56762 0.00411972 9.36519 0.0037452Z" fill="white"/>
</svg>
